# xmcd CD database file
#
# Track frame offsets:
#	150
#	34245
#	68375
#	93735
#	130232
#	141405
#	152957
#	166785
#	187187
#	202192
#
# Disc length: 2844 seconds
#
# Revision: 0
# Processed by: cddbd v1.4PL0 Copyright (c) Steve Scherf et al.
# Submitted via: CDex 1.50
#
DISCID=940b1a0a
DTITLE=Doctor Dixi Jazz Band - Flying Home Vol. 3
DYEAR=1900
DGENRE=Jazz
TTITLE0=Flying Home
TTITLE1=Moonglow
TTITLE2=My Melancholy Baby
TTITLE3=Jeep´s Blues
TTITLE4=Sheik of Araby
TTITLE5=Dinah
TTITLE6=Back O´Town Blues
TTITLE7=Faith
TTITLE8=Just in Time
TTITLE9=Blue Sunshine
EXTD=
EXTT0=
EXTT1=
EXTT2=
EXTT3=
EXTT4=
EXTT5=
EXTT6=
EXTT7=
EXTT8=
EXTT9=
PLAYORDER=
